{"title":"Bah Humduck!: A Looney Tunes Christmas (2006) DVD RIP","uid":9649562,"size":601974568,"categoryP":"video","categoryS":"movies","magnet":"?xt=urn:btih:86ac7dd1a70695e9c84dfadabda5007bf2b9da58&amp;dn=+Bah+Humduck%21%3A+A+Looney+Tunes+Christmas+%282006%29+DVD+RIP&amp;tr=udp%3A%2F%2Ftracker.openbittorrent.com%3A80&amp;tr=udp%3A%2F%2Fopen.demonii.com%3A1337&amp;tr=udp%3A%2F%2Ftracker.coppersurfer.tk%3A6969&amp;tr=udp%3A%2F%2Fexodus.desync.com%3A6969","seeders":1,"leechers":0,"uploader":"jmanwf","files":-1,"time":1393053409,"description":"Storyline\n\nIn this adaptation of Charles Dickens' A Christmas Carol, Daffy Duck is the greedy proprietor of the Lucky Duck Mega-Mart and all he can think about is the money to be made during the holiday season. Disgruntled employees like Assistant Manager Porky Pig, Marvin Martian, Speedy Gonzales, and Elmer Fudd plead to Daffy Duck for small concessions like a day off on Christmas and discounted toys, but Daffy is relentless in his pursuit of the almighty dollar. It's up to last minute shopper Bugs Bunny; the ghosts of Christmases past (Tweety and Granny), present (Yosemite Sam) and future (Taz); and Porky Pig's young daughter Priscilla to make Daffy see the error of his ways and discover the true meaning of Christmas. \n\n &lt;a href=&quot;\nhttp://www.imdb.com/title/tt0896522/&quot; rel=&quot;nofollow&quot; target=&quot;_NEW&quot;&gt;\nhttp://www.imdb.com/title/tt0896522/&lt;/a&gt;\n\n\nFormat                                   : MPEG-4\nFormat profile                           : Base Media\nCodec ID                                 : isom\nFile size                                : 574 MiB\nDuration                                 : 46mn 15s\nOverall bit rate mode                    : Variable\nOverall bit rate                         : 1 735 Kbps\nMovie name                               : Looney Tunes: Bah Humduck\nPerformer                                : Charles Visser\nGenre                                    : Kids &amp; Family\n\n\nVideo\nID                                       : 2\nFormat                                   : AVC\nFormat/Info                              : Advanced Video Codec\nFormat profile                           : &lt;a class=&quot;__cf_email__&quot; href=&quot;/cdn-cgi/l/email-protection&quot; data-cfemail=&quot;0547647660696c6b604549362b35&quot;&gt;[email&amp;#160;protected]&lt;/a&gt;&lt;script cf-hash='f9e31' type=&quot;text/javascript&quot;&gt;\n/* &lt;![CDATA[ */!function(){try{var t=&quot;currentScript&quot;in document?document.currentScript:function(){for(var t=document.getElementsByTagName(&quot;script&quot;),e=t.length;e--;)if(t[e].getAttribute(&quot;cf-hash&quot;))return t[e]}();if(t&amp;&amp;t.previousSibling){var e,r,n,i,c=t.previousSibling,a=c.getAttribute(&quot;data-cfemail&quot;);if(a){for(e=&quot;&quot;,r=parseInt(a.substr(0,2),16),n=2;a.length-n;n+=2)i=parseInt(a.substr(n,2),16)^r,e+=String.fromCharCode(i);e=document.createTextNode(e),c.parentNode.replaceChild(e,c)}}}catch(u){}}();/* ]]&gt; */&lt;/script&gt;\nFormat settings, CABAC                   : No\nFormat settings, ReFrames                : 3 frames\nCodec ID                                 : avc1\nCodec ID/Info                            : Advanced Video Coding\nDuration                                 : 46mn 14s\nBit rate                                 : 1 602 Kbps\nWidth                                    : 854 pixels\nHeight                                   : 480 pixels\nDisplay aspect ratio                     : 16:9\nFrame rate mode                          : Constant\nFrame rate                               : 23.976 fps\nColor space                              : YUV\nChroma subsampling                       : 4:2:0\nBit depth                                : 8 bits\nScan type                                : Progressive\nBits/(Pixel*Frame)                       : 0.163\nStream size                              : 530 MiB (92%)\nWriting library                          : x264 core 135\n\nAudio\nID                                       : 1\nFormat                                   : AAC\nFormat/Info                              : Advanced Audio Codec\nFormat profile                           : LC\nCodec ID                                 : 40\nDuration                                 : 46mn 15s\nBit rate mode                            : Variable\nBit rate                                 : 128 Kbps\nMaximum bit rate                         : 214 Kbps\nChannel(s)                               : 2 channels\nChannel positions                        : Front: L R\nSampling rate                            : 44.1 KHz\nCompression mode                         : Lossy\nStream size                              : 42.3 MiB (7%)\nLanguage                                 : English","torrent":{"xt":"urn:btih:86ac7dd1a70695e9c84dfadabda5007bf2b9da58","amp;dn":"+Bah+Humduck%21%3A+A+Looney+Tunes+Christmas+%282006%29+DVD+RIP","amp;tr":["udp%3A%2F%2Ftracker.openbittorrent.com%3A80","udp%3A%2F%2Fopen.demonii.com%3A1337","udp%3A%2F%2Ftracker.coppersurfer.tk%3A6969","udp%3A%2F%2Fexodus.desync.com%3A6969"],"infoHash":"86ac7dd1a70695e9c84dfadabda5007bf2b9da58","infoHashBuffer":{"type":"Buffer","data":[134,172,125,209,167,6,149,233,200,77,250,218,189,165,0,123,242,185,218,88]},"announce":[],"urlList":[]}}